solid OpenSCAD_Model
  facet normal 0 -0.707105 0.707109
    outer loop
      vertex 1 -0.707107 0.707107
      vertex 2 0 1.41421
      vertex 1 0 1.41421
    endloop
  endfacet
  facet normal 0 -0.707105 0.707109
    outer loop
      vertex 2 0 1.41421
      vertex 1 -0.707107 0.707107
      vertex 2 -0.707107 0.707107
    endloop
  endfacet
  facet normal 0 0.707107 -0.707107
    outer loop
      vertex 2 0 0
      vertex 1 0.707107 0.707107
      vertex 2 0.707107 0.707107
    endloop
  endfacet
  facet normal 0 0.707107 -0.707107
    outer loop
      vertex 1 0.707107 0.707107
      vertex 2 0 0
      vertex 1 0 0
    endloop
  endfacet
  facet normal 0 -0.707107 -0.707107
    outer loop
      vertex 1 0 0
      vertex 2 -0.707107 0.707107
      vertex 1 -0.707107 0.707107
    endloop
  endfacet
  facet normal 0 -0.707107 -0.707107
    outer loop
      vertex 2 -0.707107 0.707107
      vertex 1 0 0
      vertex 2 0 0
    endloop
  endfacet
  facet normal 1 0 0
    outer loop
      vertex 2 0 1.41421
      vertex 2 0 0
      vertex 2 0.707107 0.707107
    endloop
  endfacet
  facet normal 1 0 -0
    outer loop
      vertex 2 0 0
      vertex 2 0 1.41421
      vertex 2 -0.707107 0.707107
    endloop
  endfacet
  facet normal 0 0.707105 0.707109
    outer loop
      vertex 2 0.707107 0.707107
      vertex 1 0 1.41421
      vertex 2 0 1.41421
    endloop
  endfacet
  facet normal 0 0.707105 0.707109
    outer loop
      vertex 1 0 1.41421
      vertex 2 0.707107 0.707107
      vertex 1 0.707107 0.707107
    endloop
  endfacet
  facet normal -1 0 0
    outer loop
      vertex 1 0 0
      vertex 1 0 1.41421
      vertex 1 0.707107 0.707107
    endloop
  endfacet
  facet normal -1 0 -0
    outer loop
      vertex 1 0 1.41421
      vertex 1 0 0
      vertex 1 -0.707107 0.707107
    endloop
  endfacet
endsolid OpenSCAD_Model
